<?xml version="1.0" standalone="no"?><!DOCTYPE svg PUBLIC "-//W3C//DTD SVG 1.1//EN" "http://www.w3.org/Graphics/SVG/1.1/DTD/svg11.dtd"><svg class="icon" width="48px" height="48.00px" viewBox="0 0 1024 1024" version="1.1" xmlns="http://www.w3.org/2000/svg"><path d="M750.6 806.6C692 866.6 606.8 902 512 902c-95.4 0-181.1-35.8-239.7-96.5-28.6 42-79.1 65.9-131.7 58.9C233.9 962.7 365.8 1024 512 1024c146.3 0 278.3-61.4 371.6-159.8-52.9 7.9-103.9-15.7-133-57.6zM169.9 512.3c-4.2-7.4-3.5-16.7 2.1-23.3 38-45 70-94 140-94s115 60 140 94c6.6 9.1 4.7 21.9-4.4 28.6-7.5 5.5-17.8 5.3-25-0.6-36.8-30-73.7-55-110.6-55-29 0-58 19.3-87 37.8-7.2-17.1-12-27.5-12-27.5l-0.1 0.1c0.4 0.8 5.1 11.2 12 27.4 10.5 24.6 26.1 63 39.9 103.6 1.8 5.3 3.6 10.7 5.3 16.1 61.7 8.8 123.8 20.3 241.9 22.2 122.1 2 174.1-12.3 240.2-22.8 1.8-5.5 3.6-10.9 5.4-16.4 13.8-40.6 29.3-78.7 39.7-103.1 7.1-16.8 11.8-27 11.8-27s17.9 15.8 42.7 39.7c47.9 46.2 121.6 122.6 141.9 173.9 19.6-54.3 30.3-112.9 30.3-174C1024 229.2 794.8 0 512 0S0 229.2 0 512c0 60.1 10.4 117.8 29.4 171.4 21.7-51.2 93.5-125.6 140.5-171.1z m508.2-311l4.7-4.7c7.4-7.4 18.8-9.3 28.2-4.6 45.1 22.4 84.5 50.5 118.3 84.3 33.8 33.7 61.9 73.2 84.3 118.3 4.7 9.4 2.8 20.8-4.6 28.2l-4.7 4.7c-1.3 1.2-2.7 2.3-4.3 3.1-8.3 4.3-18.6 1-22.9-7.4-22-42.9-49.2-80.6-81.7-113.1s-70.2-59.7-113.1-81.7c-1.5-0.8-3-1.8-4.2-3-6.7-6.6-6.7-17.4 0-24.1zM571 489c38-45 70-94 140-94s115 60 140 94c5.1 7 5.2 16.2 0.7 23-24.8-23.9-42.7-39.7-42.7-39.7s-4.7 10.3-11.8 27C768.5 481.1 739.7 462 711 462c-37.2 0-74.4 25.3-111.6 55.8-8.7 7.1-21.5 5.9-28.6-2.8-6.2-7.6-6.1-18.5 0.2-26z m-447.4-58.5c-1.6-0.8-3-1.8-4.3-3.1l-4.7-4.7c-7.4-7.4-9.3-18.8-4.6-28.2 22.4-45.1 50.6-84.5 84.3-118.3 33.7-33.8 73.2-61.9 118.3-84.3 9.4-4.7 20.8-2.8 28.2 4.6l4.7 4.7c6.7 6.6 6.7 17.4 0 24.1-1.3 1.2-2.7 2.3-4.3 3.1-43 22-80.7 49.2-113 81.6-32.5 32.5-59.7 70.2-81.7 113.1-4.2 8.4-14.5 11.7-22.9 7.4z" fill="#FCD869" /><path d="M294.7 743.3c-0.2 4.8-0.8 9.2-1.6 13.3-3.2 15.3-8.9 29.3-16.4 42-1.4 2.3-2.9 4.6-4.4 6.9C330.9 866.2 416.6 902 512 902c94.8 0 180-35.4 238.6-95.4-1.5-2.2-3-4.4-4.4-6.6-8-13-13.9-27.5-17.2-43.2-0.7-3.4-1.2-7.2-1.5-11.2-111.9 40.1-318.6 39.2-432.8-2.3zM512 641.7c-118.1-1.9-180.2-13.4-241.9-22.2 3 9.4 5.9 18.9 8.6 28.2 59 8.6 120.7 19.1 233.3 20.9 116.7 1.9 169.4-11.1 231.5-21.4 2.7-9.4 5.6-18.9 8.7-28.4-66.1 10.5-118.1 24.8-240.2 22.9z" fill="#302323" /><path d="M512 668.7c-112.6-1.8-174.3-12.3-233.3-20.9 10.3 36 17.2 70.5 16 95.6 114.2 41.4 320.9 42.3 432.8 2.3-1.8-25.4 5.3-61.1 16-98.4-62.1 10.3-114.8 23.2-231.5 21.4z" fill="#FFFFFF" /><path d="M341.2 228.4c1.6-0.8 3-1.9 4.3-3.1 6.7-6.7 6.7-17.5 0-24.1l-4.7-4.7c-7.4-7.4-18.8-9.3-28.2-4.6-45.1 22.4-84.6 50.5-118.3 84.3s-61.9 73.2-84.3 118.3c-4.7 9.4-2.8 20.8 4.6 28.2l4.7 4.7c1.3 1.3 2.7 2.3 4.3 3.1 8.4 4.3 18.7 1 22.9-7.4 22-42.9 49.2-80.6 81.7-113.1 32.3-32.4 70-59.6 113-81.6zM682.3 228.4c42.9 22 80.6 49.2 113.1 81.7s59.7 70.2 81.7 113.1c4.3 8.4 14.6 11.7 22.9 7.4 1.6-0.8 3-1.9 4.3-3.1l4.7-4.7c7.4-7.4 9.3-18.8 4.6-28.2-22.4-45.1-50.5-84.6-84.3-118.3-33.8-33.8-73.2-61.9-118.3-84.3-9.4-4.7-20.8-2.8-28.2 4.6l-4.7 4.7c-6.7 6.7-6.7 17.5 0 24.1 1.2 1.2 2.7 2.2 4.2 3zM225 499.8c29-18.5 58-37.8 87-37.8 36.9 0 73.8 25 110.6 55 7.2 5.9 17.5 6.1 25 0.6 9.1-6.7 11-19.5 4.4-28.6-25-34-70-94-140-94s-102 49-140 94c-5.6 6.6-6.3 15.9-2 23.2 25-24.1 42.9-39.9 42.9-39.9v0.1l0.1-0.1s4.8 10.4 12 27.5zM599.4 517.8C636.6 487.3 673.8 462 711 462c28.7 0 57.5 19.1 86.2 37.3 7.1-16.7 11.8-27 11.8-27s17.9 15.8 42.7 39.7c4.5-6.8 4.4-16-0.7-23-25-34-70-94-140-94s-102 49-140 94c-6.3 7.5-6.4 18.4-0.2 26 7.1 8.7 19.9 9.9 28.6 2.8z" fill="#302323" /><path d="M993.7 686c-20.3-51.3-94-127.7-141.9-173.9-24.8-23.9-42.7-39.7-42.7-39.7s-4.7 10.2-11.8 27c-10.4 24.4-25.9 62.5-39.7 103.1-1.9 5.4-3.7 10.9-5.4 16.4-3.1 9.5-6 19-8.7 28.4-10.7 37.3-17.8 73-16 98.4 0.3 4 0.8 7.7 1.5 11.2 3.3 15.7 9.2 30.2 17.2 43.2 1.4 2.3 2.9 4.5 4.4 6.6 29.1 41.9 80.1 65.5 133 57.6h0.2c2.8-0.4 5.5-0.9 8.3-1.5C966.5 847 1013.8 774 998 699.7c-1-4.5-2.5-9-4.3-13.7zM272.3 805.5c1.5-2.2 3-4.5 4.4-6.9 7.5-12.7 13.2-26.7 16.4-42 0.9-4 1.4-8.5 1.6-13.3 1.2-25.1-5.7-59.6-16-95.6-2.7-9.4-5.6-18.8-8.6-28.2-1.7-5.4-3.5-10.8-5.3-16.1-13.8-40.6-29.4-79-39.9-103.6-6.9-16.3-11.6-26.6-12-27.4v-0.1s-18 15.9-42.9 39.9l-0.1 0.1c-47 45.5-118.8 119.9-140.5 171.1-2.4 5.7-4.2 11.1-5.3 16.1C8.3 773.9 55.7 846.8 130 862.6c3.5 0.8 7.1 1.4 10.6 1.8 52.6 7 103.1-16.9 131.7-58.9z" fill="#2EB0F5" /></svg>