<?xml version="1.0" standalone="no"?><!DOCTYPE svg PUBLIC "-//W3C//DTD SVG 1.1//EN" "http://www.w3.org/Graphics/SVG/1.1/DTD/svg11.dtd"><svg class="icon" width="48px" height="48.00px" viewBox="0 0 1024 1024" version="1.1" xmlns="http://www.w3.org/2000/svg"><path d="M713 810c0-78 140.5-268 140.5-268s79.6 107.6 119 194.1c33-67.7 51.5-143.7 51.5-224.1C1024 229.2 794.8 0 512 0S0 229.2 0 512s229.2 512 512 512c104.8 0 202.3-31.5 283.4-85.5C746.8 916.3 713 867.1 713 810z m43-516c9.4-9.4 24.6-9.4 33.9 0l72.1 72.1c9.4 9.4 9.4 24.6 0 33.9-9.4 9.4-24.6 9.4-33.9 0L756 327.9c-9.4-9.4-9.4-24.6 0-33.9zM479.2 638.6l25.6-40.9c2.3-3.7 7.3-4.9 11-2.5 0.9 0.6 1.7 1.4 2.4 2.5l25.6 40.9c2.3 3.7 1.2 8.7-2.5 11-1.3 0.8-2.7 1.2-4.2 1.2H486c-4.4 0-8-3.6-8-8 0-1.5 0.4-3 1.2-4.2zM157 400c-9.4-9.4-9.4-24.6 0-33.9l72.1-72.1c9.4-9.4 24.6-9.4 33.9 0 9.4 9.4 9.4 24.6 0 33.9L190.9 400c-9.4 9.4-24.6 9.4-33.9 0z m136 201c-44.2 0-80-35.8-80-80s35.8-80 80-80 80 35.8 80 80-35.8 80-80 80z m342.7 212.5c-7.2 9-19.9 11.6-30.1 6-31.2-17-62.4-25.5-93.6-25.5-31.2 0-62.4 8.5-93.6 25.6-11.6 6.3-26.1 2.1-32.4-9.5-5.6-10.2-3-22.8 6-30.1 32.6-26.1 60-40 120-40s92.6 18.1 120 40c10.3 8.2 12 23.3 3.7 33.5zM653 521c0-44.2 35.8-80 80-80s80 35.8 80 80-35.8 80-80 80-80-35.8-80-80z" fill="#FCD869" /><path d="M853.5 542S713 732 713 810c0 57.2 33.8 106.3 82.4 128.5 17.7 8.1 37.4 12.5 58.1 12.5 77.7 0 140.5-63.1 140.5-141 0-19.3-8.6-45.4-21.5-73.9-39.4-86.5-119-194.1-119-194.1z" fill="#2EB0F5" /><path d="M486 650.8h51.1c1.5 0 2.9-0.4 4.2-1.2 3.7-2.3 4.8-7.3 2.5-11l-25.6-40.9c-0.7-1.1-1.5-1.9-2.4-2.5-3.7-2.4-8.7-1.2-11 2.5l-25.6 40.9c-0.8 1.2-1.2 2.7-1.2 4.2 0 4.4 3.6 8 8 8z" fill="#FCD869" /><path d="M486 650.8h51.1c1.5 0 2.9-0.4 4.2-1.2 3.7-2.3 4.8-7.3 2.5-11l-25.6-40.9c-0.7-1.1-1.5-1.9-2.4-2.5-3.7-2.4-8.7-1.2-11 2.5l-25.6 40.9c-0.8 1.2-1.2 2.7-1.2 4.2 0 4.4 3.6 8 8 8z" fill="#F1672F" /><path d="M263 294c-9.4-9.4-24.6-9.4-33.9 0L157 366.1c-9.4 9.4-9.4 24.6 0 33.9 9.4 9.4 24.6 9.4 33.9 0l72.1-72.1c9.4-9.4 9.4-24.6 0-33.9zM828.1 400c9.4 9.4 24.6 9.4 33.9 0 9.4-9.4 9.4-24.6 0-33.9L789.9 294c-9.4-9.4-24.6-9.4-33.9 0s-9.4 24.6 0 33.9l72.1 72.1z" fill="#302323" /><path d="M293 521m-80 0a80 80 0 1 0 160 0 80 80 0 1 0-160 0Z" fill="#302323" /><path d="M733 521m-80 0a80 80 0 1 0 160 0 80 80 0 1 0-160 0Z" fill="#302323" /><path d="M632 780c-27.4-21.9-60-40-120-40s-87.4 13.9-120 40c-9 7.2-11.6 19.9-6 30.1 6.3 11.6 20.8 15.8 32.4 9.5 31.2-17.1 62.4-25.6 93.6-25.6 31.2 0 62.4 8.5 93.6 25.6 10.2 5.6 22.8 3 30.1-6 8.3-10.3 6.6-25.4-3.7-33.6z" fill="#302323" /></svg>